<svg width="5114" height="4342" viewBox="0 0 5114 4342" fill="none" xmlns="http://www.w3.org/2000/svg">
<path d="M3730.51 3731.17C3732.16 3731.17 3743.69 3728.28 3749.46 3727.05C3779.74 3689.33 3838.04 3661.51 3871.61 3664.19L3948.86 3669.96L3995.62 3672.64L4061.12 3679.03C4088.1 3681.71 4124.36 3691.8 4149.28 3684.8L4181.41 3659.66C4203.04 3679.44 4193.98 3703.35 4234.15 3708.91C4261.13 3712.83 4284.61 3724.16 4303.15 3742.71L4345.38 3785.16C4353.62 3793.4 4371.13 3805.77 4382.25 3813.19L4405.32 3816.9L4428.6 3796.7C4441.16 3785.78 4453.73 3778.98 4472.06 3784.13C4529.74 3800.21 4515.93 3760.84 4562.69 3721.28L4563.31 3719.42L4592.56 3704.58L4591.94 3687.48C4590.91 3653.47 4581.03 3621.12 4563.31 3591.03L4539.21 3550.02C4523.97 3524.26 4559.19 3480.36 4543.74 3462.84C4531.59 3449.24 4509.96 3428.43 4499.46 3410.29L4494.31 3409.47L4471.65 3405.76C4463 3406.17 4433.33 3385.77 4400.99 3403.49C4396.05 3406.17 4375.45 3406.79 4371.33 3402.46L4323.54 3351.97L4256.19 3310.55C4245.48 3303.95 4224.05 3293.86 4212.52 3297.98L4134.45 3325.59L4116.53 3332.39L4111.17 3356.09L4117.76 3445.74C4120.85 3486.96 4074.71 3526.52 4043.4 3523.23C4023.63 3521.17 4003.85 3506.53 3997.88 3487.16C3979.55 3427.19 3937.53 3418.54 3929.29 3389.68L3920.84 3359.8C3920.43 3358.15 3909.1 3359.39 3907.25 3360.21L3808.99 3408.44C3792.93 3416.27 3774.59 3452.33 3771.09 3469.65L3759.97 3525.29L3731.95 3560.12C3711.56 3617.41 3715.89 3670.58 3721.45 3720.66C3725.36 3726.02 3729.89 3731.58 3730.92 3731.58L3730.51 3731.17Z" fill="#EE2524"/>
<path opacity="0.91" d="M2706.35 3710.77C2709.44 3710.15 2710.68 3709.94 2706.35 3710.77V3710.77Z" fill="#DEE0EE"/>
<path opacity="0.91" d="M1931.85 2869.94C1934.11 2862.31 1937.41 2851.8 1937.41 2852.01L1924.64 2861.08C1922.58 2862.52 1931.23 2871.79 1931.85 2870.15V2869.94Z" fill="#DEE0EE"/>
<path opacity="0.91" d="M2369.15 3857.7C2369.98 3854.82 2370.18 3853.79 2369.15 3857.7V3857.7Z" fill="#DEE0EE"/>
<path opacity="0.91" d="M2800.9 4094.91C2802.75 4097.38 2803.99 4099.03 2800.9 4094.91V4094.91Z" fill="#DEE0EE"/>
<path opacity="0.91" d="M5047.17 4174.04C5020.39 4177.34 5053.76 4128.5 5011.12 4113.45C4989.08 4105.83 4969.1 4088.31 4962.1 4065.85L4946.86 4015.98C4944.59 4008.56 4929.97 3998.05 4922.96 3992.07L4905.86 3977.64C4901.95 3974.35 4908.34 3958.48 4911.43 3954.15C4938.82 3917.47 4911.84 3900.36 4913.9 3869.45L4916.99 3820.61L4889.18 3801.44C4861.99 3782.69 4829.86 3745.8 4793.6 3761.26L4732.01 3787.43L4730.57 3748.89C4718.83 3722.31 4675.99 3724.16 4658.27 3732.61C4653.74 3734.88 4642.41 3722.72 4639.11 3718.18C4628.4 3703.14 4592.56 3716.33 4592.15 3704.58L4562.9 3719.42L4562.28 3721.28C4563.31 3720.24 4564.34 3719.42 4565.58 3718.39L4609.25 3724.37C4642.62 3728.9 4641.17 3759.81 4659.71 3747.86C4674.54 3738.38 4705.03 3739.41 4714.92 3750.75L4716.15 3778.15C4716.15 3782.89 4720.89 3794.23 4724.6 3797.11C4741.69 3810.92 4771.97 3779.19 4804.52 3773.83C4837.07 3768.47 4861.37 3797.32 4881.35 3814.22L4899.27 3829.47C4912.66 3840.8 4888.36 3866.56 4902.36 3895.62C4910.81 3913.14 4911.01 3928.18 4899.69 3943.43C4893.51 3951.68 4885.68 3976.2 4891.45 3983.83C4900.92 3996.19 4925.43 4008.97 4929.76 4020.72L4949.12 4072.86C4970.96 4132.21 5022.45 4111.81 5022.04 4159.41V4181.87C5021.83 4191.56 5082.6 4180.23 5093.31 4207.02C5099.7 4222.89 5107.11 4232.16 5113.5 4238.55V4211.14C5112.47 4209.08 5111.44 4207.02 5110.41 4204.54C5101.96 4183.11 5070.45 4170.75 5046.76 4173.63L5047.17 4174.04Z" fill="#DEE0EE"/>
<path opacity="0.91" d="M4033.93 4166.62L4096.55 4164.98L4136.51 4169.1L4185.95 4145.81L4194.39 4125L4222.2 4113.87L4259.89 4089.14L4272.05 4113.66C4274.73 4119.02 4290.38 4124.58 4295.94 4121.9C4301.3 4119.02 4307.48 4108.92 4310.77 4100.06C4313.04 4093.46 4305.21 4077.39 4299.86 4071.41C4282.76 4052.87 4304.39 4043.18 4305.01 4002.17C4305.83 3960.95 4323.75 3968.78 4363.51 3929.21C4376.69 3916.03 4406.76 3929.21 4425.3 3880.78C4425.3 3873.16 4399.55 3868.01 4390.9 3866.98L4404.7 3817.1L4405.11 3816.69L4382.04 3812.98C4397.9 3823.49 4365.77 3871.3 4374.83 3875.43L4407.38 3890.47C4383.69 3916.85 4362.89 3896.65 4348.47 3919.32C4324.37 3956.83 4294.29 3941.17 4290.79 3995.37C4288.53 4028.75 4276.37 4068.12 4265.46 4073.47L4218.29 4096.97L4184.71 4109.95L4169.67 4132.83L4133.63 4152.4L4063.59 4151.99C4009.62 4151.58 4054.53 4115.93 3995 4083.37L3943.71 4055.13C3928.05 3994.96 3976.25 3991.04 3940.62 3946.53C3907.66 3905.31 3885.41 3936.43 3838.24 3914.99C3814.97 3904.48 3788.19 3890.68 3768.83 3875.01L3754.2 3818.55C3747.61 3793.2 3737.52 3761.46 3741.84 3737.14C3744.11 3733.64 3746.78 3730.34 3749.46 3727.05C3743.9 3728.49 3732.16 3731.17 3730.51 3731.17C3729.48 3731.17 3724.95 3725.6 3721.04 3720.24C3729.89 3799.38 3741.84 3871.1 3665.01 3939.72C3647.91 3954.98 3593.94 3934.57 3594.15 3962.39C3594.15 3974.35 3594.56 3997.22 3590.24 4006.08C3558.72 4068.94 3488.07 4082.34 3457.17 4054.72C3451.2 4049.36 3444.6 4028.96 3441.51 4020.92C3442.54 4012.47 3443.57 4004.02 3443.37 4006.08L3458.82 4018.66L3469.12 4027.93C3489.92 4046.68 3474.47 3983.62 3417.62 3973.52C3350.88 3961.57 3296.09 3984.03 3237.79 4011.03C3163.23 4045.45 3155.61 4076.36 3122.24 4087.9L2924.08 4156.11C2901.63 4163.95 2894.21 4134.89 2857.34 4117.99C2850.13 4114.69 2827.68 4115.52 2818.82 4114.28C2814.08 4113.66 2820.06 4094.29 2824.59 4094.7C2836.33 4095.73 2856.72 4087.28 2853.63 4079.24C2848.48 4065.64 2846.83 4048.95 2846.83 4037C2846.22 4035.97 2842.51 4030.2 2841.48 4029.78L2818.61 4020.1C2816.76 4019.27 2808.11 4020.92 2808.73 4022.78L2813.88 4034.94L2822.73 4053.69L2835.51 4072.65L2800.9 4094.91C2802.75 4097.38 2803.99 4099.03 2800.9 4094.91C2799.66 4093.46 2798.43 4091.61 2797.4 4090.37C2796.99 4089.14 2794.1 4080.89 2794.1 4079.66L2796.37 4055.13L2797.81 4039.47C2787.51 4046.27 2784.63 4048.13 2783.19 4051.22L2777.01 4064.82C2759.09 4056.37 2724.07 4044.62 2703.67 4050.6C2693.38 4053.48 2678.13 4074.71 2671.75 4082.54C2637.55 4123.55 2613.45 4101.09 2584.82 4129.53C2579.67 4134.68 2568.34 4146.84 2562.78 4146.63L2517.88 4145.4C2515.2 4145.4 2503.66 4146.02 2505.1 4144.16L2516.02 4130.56C2538.06 4103.15 2544.65 4078.83 2529.21 4070.38C2511.28 4060.49 2501.6 4084.81 2470.5 4068.94C2456.9 4061.93 2431.77 4053.69 2419.42 4050.8C2402.73 4047.1 2427.24 4003.82 2381.31 3980.12L2366.27 3949.2L2353.5 3931.69C2349.79 3926.74 2358.44 3912.73 2359.68 3906.34L2366.68 3866.77C2367.51 3863.47 2368.54 3859.97 2369.36 3857.5C2370.18 3854.61 2370.39 3853.58 2369.36 3857.5C2376.78 3917.67 2438.98 3957.65 2491.72 3939.52C2492.54 3935.81 2491.1 3942.2 2490.07 3947.76L2476.68 3987.95C2475.65 3991.25 2477.91 4002.99 2481 4004.23C2485.12 4005.88 2497.28 4002.37 2498.93 3998.46L2521.79 3940.55C2528.38 3923.65 2503.05 3922.83 2504.69 3893.36C2507.58 3844.93 2465.76 3807.83 2421.27 3818.96L2379.66 3829.26L2424.98 3773C2435.28 3760.23 2436.51 3727.46 2441.04 3713.44L2445.58 3699.02C2447.64 3692.22 2481 3718.39 2493.98 3701.49C2516.64 3672.43 2534.15 3646.26 2512.52 3625.65C2495.22 3608.96 2459.17 3628.33 2451.96 3611.43C2423.33 3544.25 2478.94 3485.93 2471.74 3442.03L2464.11 3394.63C2463.5 3391.33 2461.02 3383.5 2459.38 3380.62C2457.11 3376.91 2444.75 3377.73 2440.22 3379.79L2390.99 3401.84C2364 3414 2356.8 3475.21 2321.16 3482.22L2231.14 3499.94C2198.19 3506.53 2167.29 3611.02 2166.67 3674.08L2165.44 3790.11C2165.44 3803.09 2166.26 3830.5 2176.56 3836.48C2191.18 3845.13 2217.76 3855.85 2222.08 3868.42C2239.18 3917.06 2215.49 3967.55 2241.24 4009.38L2261.22 4041.53C2262.25 4043.18 2261.22 4052.87 2259.36 4053.69L2233.2 4065.85C2230.11 4067.29 2223.52 4078.42 2225.99 4080.89L2237.12 4092.43C2244.33 4099.85 2252.57 4113.04 2255.86 4122.73L2271.52 4170.54H2247.42C2240.41 4170.33 2228.26 4171.16 2223.11 4173.84C2203.95 4183.32 2217.14 4214.02 2200.25 4222.06L2182.33 4230.51C2182.33 4230.51 2177.18 4225.36 2175.32 4223.71C2167.49 4205.78 2149.57 4195.89 2130.83 4197.54L2092.52 4201.25C2061.82 4204.13 2040.81 4224.95 2035.46 4258.13L2025.98 4257.71C2016.51 4254.21 1999 4250.29 1990.97 4251.74L1931.02 4262.04C1899.71 4267.4 1868.4 4273.17 1848.22 4301.4C1840.6 4311.91 1837.51 4326.75 1836.68 4341.38H1850.48C1851.93 4324.9 1859.55 4305.94 1871.08 4298.31C1896.83 4281 1925.05 4275.44 1955.54 4271.73L2003.12 4265.96C2016.3 4264.31 2041.23 4288.63 2046.17 4301.82C2050.7 4313.56 2050.7 4327.58 2048.64 4341.38H2064.09C2066.56 4325.1 2066.15 4308.82 2059.35 4293.37C2048.02 4268.22 2043.7 4233.6 2076.86 4220.82C2092.72 4214.64 2130.01 4210.52 2146.28 4213.2C2155.55 4214.64 2162.96 4237.52 2165.85 4245.76L2171.82 4262.66C2173.06 4266.37 2184.8 4258.13 2187.89 4255.65C2213.22 4235.04 2225.38 4243.91 2224.35 4224.74C2223.93 4215.67 2224.35 4187.65 2233 4187.23L2276.26 4185.17C2280.79 4184.97 2295.21 4179.2 2293.35 4175.28L2287.38 4161.06L2272.14 4117.99C2266.78 4102.94 2259.98 4091.82 2246.59 4078.21C2252.77 4068.94 2269.46 4069.97 2276.67 4053.07C2279.14 4047.3 2272.75 4033.08 2269.87 4027.52L2241.44 3974.97L2312.3 3988.98H2359.27C2369.77 3988.98 2389.55 4001.14 2393.25 4010.41C2396.55 4018.24 2396.14 4036.79 2395.93 4047.71C2395.52 4071.21 2430.13 4065.44 2459.79 4079.45C2481.83 4089.96 2491.3 4087.9 2527.56 4083.78C2519.94 4098.82 2509.43 4112.42 2498.72 4126.64L2486.57 4143.13C2484.3 4146.02 2493.78 4158.17 2497.48 4158.17L2552.89 4161.06C2586.47 4162.71 2587.5 4133.24 2631.99 4124.58C2676.69 4115.93 2680.4 4082.34 2707.18 4067.29C2718.92 4060.7 2754.35 4065.02 2763 4075.33L2792.87 4110.78C2805.43 4125.82 2823.97 4131.8 2845.39 4130.56L2864.34 4192.59L2905.75 4215.88L2922.43 4295.84C2925.52 4310.88 2915.84 4326.13 2907.19 4341.38H2923.87C2932.11 4324.9 2939.94 4301.61 2932.52 4263.48L2922.23 4209.7L2880 4182.29C2872.17 4177.13 2870.11 4151.17 2870.32 4140.86L2891.53 4159C2894.42 4161.47 2892.77 4172.19 2892.15 4179.61L2923.26 4181.87C2931.29 4172.81 2942.21 4160.85 2952.09 4157.76L3137.48 4097.79C3145.51 4095.11 3157.87 4085.43 3161.58 4080.89C3184.24 4052.66 3214.31 4039.06 3245.83 4023.81C3299.59 3997.84 3352.12 3975.38 3415.35 3985.68L3438.42 4051.42C3449.34 4082.54 3508.25 4088.72 3541.62 4072.65C3561.4 4063.17 3577.67 4059.87 3598.68 4062.96C3718.36 4080.89 3835.15 4087.08 3955.45 4076.36L3991.91 4098.2C4011.89 4110.16 4017.04 4123.55 4019.51 4147.46C4027.75 4227.42 4061.53 4281 4069.15 4340.97H4084.4C4081.31 4319.13 4074.3 4295.43 4067.09 4271.93L4034.55 4165.8L4033.93 4166.62ZM4288.32 4076.36L4298 4105.01L4286.47 4108.92L4276.99 4080.27L4288.53 4076.36H4288.32ZM2434.25 3831.74C2447.84 3827.61 2470.91 3845.13 2479.77 3856.47C2490.89 3870.69 2492.95 3906.75 2485.54 3920.77C2472.35 3945.7 2413.44 3917.26 2401.08 3897.48C2392.02 3883.05 2386.66 3864.09 2381.31 3848.02L2434.25 3831.74ZM2284.7 3969.61L2242.06 3960.75L2242.89 3898.92C2243.92 3833.59 2179.03 3835.86 2179.24 3810.1V3707.47C2179.65 3639.67 2200.04 3528.79 2236.29 3514.16C2291.91 3491.9 2346.7 3516.43 2371.63 3451.72C2375.54 3441.82 2386.87 3421.42 2395.52 3417.3L2448.46 3391.54L2455.46 3429.46C2458.14 3444.5 2458.55 3469.65 2450.52 3485.1C2428.89 3526.94 2422.92 3583.2 2441.46 3624.42C2445.37 3633.07 2471.12 3633.69 2479.97 3634.72L2501.19 3637.4C2506.75 3638.22 2508.4 3656.15 2504.9 3660.69L2478.94 3694.48L2450.11 3677.79C2435.48 3683.15 2423.95 3709.73 2423.12 3725.19C2421.47 3751.98 2410.56 3768.47 2394.49 3787.02L2358.24 3828.85C2339.08 3850.9 2358.86 3870.07 2340.73 3913.55C2336.4 3924.06 2338.87 3942.4 2345.05 3950.03L2360.92 3970.23C2330.02 3977.03 2311.89 3975.17 2284.7 3969.61ZM3720.21 3899.33L3744.52 3838.33C3749.87 3853.58 3750.29 3873.98 3746.99 3894.18C3741.43 3927.77 3755.64 3958.89 3731.34 3955.18L3685.61 3947.97L3720.21 3899.33ZM3928.05 4064.82L3735.46 4065.23L3581.17 4047.51C3589.62 4033.91 3605.07 4016.18 3605.89 4005.47L3609.6 3959.51C3676.34 3951.68 3748.02 3981.15 3756.67 3959.3C3767.18 3932.72 3750.29 3911.49 3762.85 3892.33C3796.02 3910.87 3829.18 3929.21 3858.22 3936.84L3904.36 3938.49C3916.31 3938.9 3938.97 3964.04 3937.12 3976C3930.32 4001.55 3922.7 4035.97 3928.26 4065.02L3928.05 4064.82Z" fill="#DEE0EE"/>
<path opacity="0.91" d="M5041.4 4308C5023.07 4290.89 4989.91 4285.54 4973.22 4302.85C4964.16 4312.33 4957.98 4327.16 4959.22 4341.8H4975.69C4973.02 4332.73 4974.46 4322.84 4985.58 4311.71C4994.85 4302.43 5018.95 4307.79 5029.87 4317.48C5053.76 4338.29 5084.66 4327.78 5102.38 4304.7C5105.67 4300.37 5109.58 4296.87 5113.5 4293.57V4274.2L5091.46 4294.81C5078.89 4306.56 5055.82 4321.81 5040.99 4308H5041.4Z" fill="#DEE0EE"/>
<path opacity="0.91" d="M5082.19 1154.28C5069.01 1147.28 5038.73 1143.98 5026.16 1149.34C5010.3 1156.14 5041.82 1166.85 5060.56 1210.75C5071.68 1236.92 5093.31 1256.3 5113.7 1276.08V1256.09C5098.46 1240.22 5082.6 1221.47 5074.15 1203.13L5055 1161.5C5069.21 1166.24 5086.31 1174.69 5098.87 1183.55C5101.96 1196.53 5107.11 1208.07 5113.91 1217.96V1185.2C5106.7 1171.8 5098.46 1162.94 5082.39 1154.28H5082.19Z" fill="#DEE0EE"/>
<path opacity="0.91" d="M5105.26 419.797C5091.25 414.645 5069.83 410.317 5060.97 404.547L5004.12 367.04C5000 364.361 4979.2 364.979 4976.72 369.307L4964.16 391.152L4937.17 438.345L4889.8 418.561L4839.33 406.196L4755.91 390.121C4748.49 388.678 4737.16 372.398 4730.37 368.894L4648.8 326.853L4729.95 338.6C4748.7 341.279 4778.77 335.303 4790.31 321.907C4831.71 273.477 4870.85 285.43 4879.5 259.257C4891.45 224.017 4829.44 208.354 4803.9 177.854C4783.1 153.124 4765.79 134.988 4730.78 134.782C4674.75 134.37 4686.28 93.359 4643.03 82.0244C4620.99 76.254 4592.97 87.7948 4586.38 109.021L4563.72 183.212L4558.16 199.905C4556.31 205.057 4535.3 199.905 4538.59 195.989C4547.45 184.242 4561.87 155.803 4558.57 141.583L4536.12 119.326C4562.9 111.907 4589.68 85.94 4575.88 57.7064C4565.99 37.5101 4535.09 25.9693 4512.64 21.0233C4474.12 12.5738 4434.57 24.5267 4418.71 64.5072C4413.35 77.9027 4430.04 93.7712 4448.58 101.602L4424.06 122.005C4393.37 147.559 4413.97 203.202 4366.18 218.865L4371.95 149.414L4379.37 80.994C4379.78 77.0784 4373.8 65.3315 4370.92 63.2707C4354.65 51.936 4323.34 87.1765 4301.92 124.272L4266.49 185.685C4251.04 212.27 4233.73 234.115 4221.99 262.349C4212.93 283.987 4202.84 300.062 4188.01 318.404C4182.44 292.437 4202.42 268.325 4207.57 207.53C4208.4 197.226 4219.52 181.151 4226.94 171.259L4277.82 103.045C4280.7 99.1294 4283.79 85.94 4281.32 82.8487L4268.13 67.1863C4282.55 66.3619 4303.56 54.8212 4301.71 41.8379C4299.24 24.5267 4285.23 8.03995 4271.84 2.88783C4244.45 -8.03466 4204.28 13.3982 4200.78 44.1048L4219.52 67.3924L4199.34 88.6191C4184.5 66.7741 4153.4 51.7299 4131.57 56.4699C4113.85 60.1794 4115.09 97.0686 4107.47 96.8625L4089.75 96.4503L4099.23 123.035C4103.14 133.958 4091.81 157.657 4084.4 167.756C4079.25 178.266 4076.57 183.624 4083.98 168.786L4059.27 130.866C4055.97 125.92 4036.81 124.066 4032.07 127.157C4026.1 131.073 4021.36 140.346 4017.45 153.742C4014.57 163.222 4004.47 167.756 3993.14 174.763L3945.36 204.439C3936.09 210.209 3932.58 232.878 3934.23 246.48C3872.02 226.078 3863.17 264.822 3817.03 256.784C3773.36 249.159 3746.99 274.92 3750.7 286.873C3752.55 292.849 3761 303.359 3766.56 306.863L3819.5 339.218L3821.56 381.878L3793.54 348.904C3785.3 339.218 3754.2 328.914 3748.02 340.043C3736.28 361.063 3728.45 375.077 3707.85 380.023C3649.56 393.625 3679.43 448.031 3651.21 484.714L3660.68 369.925C3661.1 364.979 3654.5 353.026 3650.8 350.965C3646.88 348.904 3632.88 351.789 3630.4 355.705L3588.79 418.149C3587.97 404.547 3579.94 389.091 3569.23 383.114L3593.53 347.049L3536.27 316.343C3523.08 309.336 3535.24 273.271 3518.76 271.622C3502.28 269.974 3506.61 282.545 3473.44 300.268C3464.17 305.214 3453.87 327.471 3456.76 337.776C3463.35 362.712 3461.7 387.442 3447.28 407.432C3402.17 419.179 3377.87 461.22 3384.66 469.876C3387.55 473.379 3394.76 479.562 3399.08 482.447L3422.98 498.522L3386.1 499.758C3378.69 484.508 3366.95 465.136 3354.18 460.602C3321.84 449.061 3311.74 490.484 3272.81 513.978C3243.77 531.495 3266.84 552.928 3244.39 603.625L3238 617.845C3236.15 621.76 3247.89 631.652 3252.01 632.477C3263.54 634.95 3283.11 629.385 3292.59 623.409L3331.72 598.885C3318.34 625.264 3311.74 634.95 3311.74 661.741C3311.74 682.761 3288.88 701.103 3266.63 709.965L3220.9 727.894C3219.46 726.039 3214.72 720.269 3212.25 717.384C3220.7 697.187 3201.54 661.123 3179.5 664.832C3167.97 666.893 3151.69 686.883 3144.07 696.775C3143.45 699.867 3142.84 702.133 3142.42 703.782C3142.01 705.431 3141.81 706.461 3141.81 706.461C3141.81 706.461 3142.01 705.637 3142.42 703.782C3142.63 702.546 3143.04 700.897 3143.66 698.63L3136.86 630.622C3168.38 581.368 3177.24 530.465 3154.78 533.762C3150.46 534.38 3138.1 538.914 3135.01 543.036L3080.63 614.547C3071.15 627.119 3076.3 663.389 3077.13 678.228C3073.62 682.349 3065.8 691.829 3074.65 681.113L3045.2 628.767C3042.73 624.439 3021.3 629.179 3020.27 634.332L3016.36 655.764L3012.86 675.549C3012.04 679.67 3000.5 685.234 2996.38 684.822C2967.54 681.937 2941.38 721.918 2953.54 742.732C2958.07 750.563 2980.11 748.709 2989.58 745.205L3002.35 768.493L3053.03 758.395C3034.69 801.466 2969.19 769.317 2933.76 831.967L2912.96 824.136C2899.98 819.19 2867.64 827.639 2858.37 838.768C2847.45 851.957 2843.75 872.153 2838.6 893.174L2827.06 880.603C2812.02 864.116 2767.74 921.408 2771.44 953.145L2773.09 966.746C2773.5 970.456 2789.98 965.716 2792.45 962.418L2842.1 898.12C2843.75 899.15 2855.9 906.363 2858.78 908.012L2917.9 865.765L2949.83 872.153L3031.19 840.21C3080.83 820.632 3095.67 840.622 3135.63 810.122L3176 779.209L3164.88 768.081L3131.92 793.841C3091.96 825.166 3070.33 808.061 3041.7 819.602L2938.7 860.613C2946.74 842.271 2956.01 825.784 2968.16 814.244C2989.58 794.047 3034.49 815.48 3070.54 763.753C3109.05 708.316 3081.86 665.45 3117.91 647.315C3120.18 646.078 3129.03 659.062 3128.83 661.535L3125.12 716.765C3124.92 721.093 3132.74 735.725 3136.24 733.664C3160.96 718.826 3156.23 694.714 3179.71 681.113C3195.77 671.839 3197.83 710.995 3201.34 751.388L3240.68 736.962C3283.52 721.093 3332.96 693.066 3328.02 660.917C3324.52 637.629 3337.08 617.639 3357.88 610.632C3405.47 594.145 3377.04 572.918 3403.61 517.894L3414.74 518.924C3422.77 529.847 3435.54 544.685 3446.46 552.104C3452.84 556.431 3479.21 548.188 3474.88 541.799C3465.41 528.816 3442.13 504.704 3438.43 489.042C3436.78 482.035 3463.35 479.768 3466.44 486.157C3474.88 503.262 3487.66 521.191 3502.49 534.587C3520.2 498.934 3484.15 448.649 3503.72 437.521L3566.96 401.868L3569.43 414.233L3572.93 460.19C3572.93 462.663 3582 468.845 3584.26 469.876C3602.39 478.738 3595.8 408.669 3643.17 365.803L3644 411.348L3626.9 501.613C3626.08 506.559 3627.73 519.13 3629.79 523.046C3633.91 531.495 3679.63 504.498 3681.9 430.514C3682.52 410.111 3694.67 396.51 3716.51 393.212C3757.7 386.824 3751.93 329.738 3774.18 352.408L3828.97 407.638C3830.62 409.287 3844.63 410.523 3844.22 408.463L3842.36 394.449L3835.98 346.019C3835.15 339.424 3827.53 327.265 3821.97 323.556L3762.85 283.781C3781.6 273.271 3793.54 269.974 3808.17 271.004L3858.02 274.92L3918.99 284.4C3958.74 290.582 3929.7 351.583 3980.78 360.033C3983.67 360.445 3994.38 359.208 3995.41 356.941C4005.5 336.951 3984.29 318.198 4008.8 271.828C4019.72 251.014 4035.99 219.689 4054.53 210.827L4088.93 194.753C4107.26 164.046 4125.39 111.907 4134.66 70.6897C4173.79 66.7741 4194.8 111.082 4202.42 104.9L4219.32 91.0921C4226.32 85.3217 4244.65 83.0548 4258.25 81.4061L4262.57 97.0686L4195.63 189.601L4187.18 250.19L4168.85 307.069C4167.41 311.397 4172.56 324.998 4175.44 328.708C4190.07 346.843 4219.93 309.954 4239.91 261.112C4248.15 240.71 4259.28 224.635 4269.99 207.118L4311.8 139.11C4325.81 116.441 4336.93 85.94 4362.06 77.6966C4364.54 76.8723 4366.18 88.6191 4365.77 91.5043L4358.36 147.353L4350.32 212.682C4349.7 218.04 4356.09 235.145 4362.06 234.527C4385.75 232.26 4418.71 202.996 4417.89 169.198C4417.06 130.866 4465.26 120.768 4465.47 99.5416C4465.47 92.7408 4454.76 84.4974 4447.96 79.1392L4434.57 68.6289C4429.01 64.3011 4461.35 7.21561 4548.07 47.6082C4553.42 50.0812 4561.46 58.5307 4564.14 63.2707C4566.81 67.8045 4563.31 85.5278 4558.78 88.2069L4519.44 111.288C4516.14 113.143 4508.52 123.654 4511.61 125.714L4525.41 134.576L4543.95 146.529C4548.27 149.414 4540.03 163.84 4536.95 168.374L4516.14 200.317C4512.43 205.881 4537.15 215.773 4543.74 214.537L4568.67 210.003C4583.7 207.324 4580 144.468 4608.01 105.106C4623.67 83.0548 4659.71 98.5112 4669.6 118.501C4692.26 164.87 4751.99 139.522 4771.15 161.985L4798.55 193.928L4864.67 242.771C4887.53 259.669 4816.06 269.355 4794.22 296.146C4780.01 313.664 4758.17 329.326 4735.72 324.586L4652.71 307.275C4643.03 305.214 4619.75 301.917 4612.13 307.275C4604.51 312.839 4619.13 334.89 4627.78 338.188L4698.44 365.391C4711.21 370.337 4729.34 389.297 4739.63 400.631C4750.55 412.584 4791.96 397.334 4845.1 427.835C4855.4 433.811 4859.52 468.021 4851.9 477.707C4842.42 489.66 4809.88 480.798 4801.84 465.754C4797.93 458.541 4776.09 446.176 4772.39 453.183C4760.23 475.44 4778.57 507.383 4739.43 524.076C4721.92 531.495 4696.79 544.272 4684.64 557.462C4672.9 570.239 4667.54 635.774 4645.71 622.379C4634.99 615.784 4636.02 586.932 4643.85 576.216L4679.9 527.167C4692.05 510.681 4670.42 444.94 4656.42 437.933L4588.65 403.723C4559.81 389.091 4543.33 354.675 4520.05 332.005C4491.63 303.978 4447.75 367.04 4416.24 369.925C4401.61 371.367 4367.63 360.445 4357.94 371.161L4311.8 421.652C4296.15 438.757 4285.85 457.305 4281.32 480.18C4271.22 530.671 4265.04 576.628 4264.43 628.561C4264.43 647.521 4250.83 658.65 4232.09 662.977C4192.13 672.251 4200.57 720.269 4178.74 744.587L4112 706.873L4085.84 689.356C4080.07 685.441 4063.8 680.288 4057 681.937C4049.17 683.792 4040.31 694.92 4031.87 705.019C4022.6 716.147 3991.29 729.543 3977.49 725.627L3895.71 703.164L3809.82 562.614C3803.23 551.898 3776.65 546.746 3764.91 547.982C3751.93 549.219 3724.74 565.705 3725.36 578.689L3727.01 615.372L3703.94 601.976C3698.58 598.885 3685.2 612.899 3679.02 613.723L3634.73 620.524L3622.16 622.379C3610.22 624.233 3640.29 653.91 3642.76 679.876C3645.23 705.843 3624.22 740.259 3610.22 758.807C3606.1 764.165 3617.43 778.385 3621.34 783.743C3624.84 788.895 3615.78 801.878 3610.22 804.558C3603.42 807.649 3587.76 804.97 3579.52 802.291L3453.46 760.455C3439.04 755.715 3412.06 752.624 3398.67 759.837C3370.86 774.675 3415.15 853.606 3362.62 916.256L3312.36 890.083C3290.73 878.954 3232.65 936.452 3228.94 945.726L3201.34 1016.41C3190.01 1045.68 3160.76 1045.88 3155.61 1067.73C3151.08 1087.51 3200.51 1134.09 3176.21 1167.27L3126.36 1234.86L3075.27 1309.67C3062.91 1327.6 3083.31 1373.76 3055.29 1386.13C3007.09 1407.36 2971.87 1404.26 2970.63 1408.18C2969.6 1411.89 2968.57 1421.16 2968.37 1425.28L2965.48 1530.18L2952.71 1623.33C2948.39 1655.07 2928.2 1687.84 2912.34 1715.66L2865.99 1796.86C2863.52 1801.18 2860.43 1812.72 2862.49 1816.64C2873.2 1837.04 2901.21 1836.63 2908.22 1851.06C2922.23 1880.32 2913.78 1950.39 2878.97 1943.79L2814.49 1931.84C2784.83 1926.28 2752.91 1943.79 2736.84 1968.11L2683.9 2048.28L2672.16 2094.03C2666.8 2114.84 2657.53 2133.8 2666.8 2155.86C2674.63 2173.99 2671.34 2192.74 2670.1 2212.12L2665.36 2287.75C2664.33 2303.62 2682.05 2334.74 2682.66 2351.02C2685.96 2442.31 2648.68 2488.68 2699.35 2519.8C2720.57 2532.99 2745.7 2556.48 2748.17 2582.86C2749.2 2594.82 2741.16 2620.37 2734.98 2630.26C2726.75 2643.66 2703.47 2638.09 2686.37 2648.4C2682.25 2650.87 2680.6 2665.92 2682.46 2671.07L2705.32 2736.19C2714.18 2761.33 2713.15 2779.67 2710.47 2807.29C2707.79 2834.7 2701.41 2873.24 2675.45 2889.1C2655.68 2901.26 2636.94 2889.52 2633.02 2915.07C2630.14 2934.44 2624.78 2945.37 2614.69 2964.12C2602.95 2985.96 2631.79 3019.97 2603.15 3107.97C2602.33 3110.65 2589.35 3113.74 2588.74 3111.06L2585.85 3096.63C2583.59 3085.5 2571.02 3065.93 2559.07 3065.31C2476.47 3061.39 2505.1 2976.28 2480.8 2901.68C2471.94 2907.24 2461.44 2920.22 2461.23 2929.5L2459.38 2997.09C2458.55 3025.12 2457.93 3045.94 2441.04 3070.46C2436.1 3077.67 2420.03 3090.45 2410.97 3090.86C2374.51 3092.3 2349.17 3115.18 2326.1 3140.12L2221.67 3253.46C2177.79 3301.07 2063.47 3316.11 2030.1 3285.41C2013.62 3270.36 2003.74 3255.32 1985.82 3245.63C1928.14 3214.31 1874.38 3184.22 1887.77 3118.07C1892.71 3093.54 1928.96 3114.36 1934.11 3098.49L1953.89 3037.07C1956.15 3029.65 1956.36 3017.91 1954.51 3012.34C1952.65 3006.78 1934.11 3002.86 1928.76 3005.54L1850.69 3044.08L1852.34 2990.91C1852.75 2979.16 1866.96 2964.12 1878.5 2961.85L1920.31 2953.2C1924.02 2952.37 1932.88 2943.92 1933.7 2940.21C1937.82 2920.02 1916.19 2918.37 1927.52 2901.47L1960.48 2852.22C1977.78 2826.46 1994.26 2801.31 2014.45 2781.32L2011.15 2770.19C2010.33 2767.1 1971.19 2776.58 1946.47 2811.2L1914.34 2856.34C1889.41 2826.04 1853.16 2832.02 1848.22 2807.91C1843.69 2785.44 1882 2765.04 1852.75 2726.71C1842.04 2712.7 1823.91 2668.59 1844.1 2658.29C1870.46 2644.89 1914.54 2639.54 1945.44 2638.71L2030.93 2636.65C2064.3 2635.83 2104.67 2635.83 2130.62 2614.19C2129.8 2610.07 2122.18 2601.82 2119.29 2602.03L2031.96 2606.56L1952.24 2606.97C1899.1 2607.18 1860.78 2630.26 1846.78 2611.3C1823.91 2580.39 1872.11 2536.91 1851.1 2514.44C1834.42 2496.51 1836.68 2482.71 1848.63 2463.75L1891.89 2393.88C1897.04 2385.64 1917.43 2374.72 1926.49 2370.6L1992.82 2339.48C1996.32 2337.83 2005.18 2332.88 2003.74 2329.79L1994.47 2310.62C1993.44 2308.56 1993.64 2297.23 1994.88 2295.99C2063.47 2268.17 2099.73 2294.96 2134.74 2284.04C2146.9 2280.33 2140.51 2250.24 2128.77 2247.56L2072.95 2234.79C2050.91 2229.63 2090.66 2204.9 2135.36 2183.47L2217.76 2144.11C2236.91 2134.83 2263.48 2124.32 2274.81 2108.25C2285.32 2093.41 2292.94 2086.82 2307.77 2081.66L2356.38 2064.77C2376.78 2057.55 2395.11 2053.43 2410.56 2075.07C2418.18 2085.58 2435.69 2094.85 2447.64 2094.24L2503.46 2091.56C2518.08 2090.94 2530.24 2080.63 2532.3 2064.15C2538.27 2015.31 2609.54 2029.73 2584.82 1980.27L2600.06 1954.1C2601.3 1952.04 2601.51 1945.03 2601.3 1942.76C2600.27 1931.22 2565.46 1938.85 2540.53 1975.12L2547.33 2001.7L2480.39 2044.16C2467.41 2052.4 2441.87 2056.93 2433.83 2046.84L2398.82 2003.35L2417.56 1985.84C2431.16 1973.26 2437.13 1957.19 2446.81 1938.64C2463.7 1906.91 2488.42 1872.9 2516.85 1850.03L2556.19 1818.29L2614.48 1770.48L2615.72 1731.73C2626.84 1716.07 2653.41 1688.46 2669.28 1677.33C2684.52 1666.61 2728.6 1690.1 2755.17 1644.15C2756.41 1642.09 2754.76 1631.16 2752.7 1631.78L2736.63 1636.52L2710.88 1643.12C2703.88 1644.97 2692.14 1625.6 2693.79 1618.18C2701 1585.62 2720.98 1554.91 2734.57 1525.65L2773.5 1441.77C2781.54 1424.67 2798.43 1408.18 2817.58 1402.82L2871.35 1387.98C2874.85 1386.95 2882.68 1379.74 2884.94 1377.06C2888.03 1373.35 2875.88 1362.02 2870.94 1362.02L2820.88 1360.99L2808.52 1359.13C2805.84 1358.72 2806.46 1343.88 2808.32 1340.58L2849.31 1262.89L2872.58 1241.05L2882.06 1207.25C2930.88 1189.52 2939.32 1152.84 2981.55 1145.01L3039.43 1134.29C3042.93 1133.67 3050.14 1125.43 3052.2 1122.55C3054.06 1119.46 3042.93 1108.53 3039.43 1108.53L2973.52 1105.85L2995.14 1067.93C2999.06 1061.13 3010.39 1049.59 3018.01 1048.15C3026.66 1046.5 3045.82 1052.89 3053.44 1057.42L3067.24 1065.87C3069.92 1067.52 3079.19 1058.04 3078.16 1054.95L3068.68 1021.36C3067.24 1016.21 3074.24 1004.05 3077.95 1000.34L3090.31 987.561C3093.81 983.851 3086.6 965.922 3081.04 966.54C3045.61 970.044 3015.95 1011.26 3014.92 1000.75L3013.27 985.706C3010.18 957.885 3031.19 945.726 3054.47 942.634L3093.61 937.276C3100.4 936.452 3115.03 925.117 3118.53 919.141C3121.21 914.401 3106.38 904.921 3101.23 903.066L3089.9 899.15C3087.84 898.326 3095.25 892.35 3097.72 891.113L3141.19 868.856L3157.05 917.08C3158.9 922.438 3170.23 930.475 3175.38 932.536C3180.53 934.597 3191.24 918.316 3190.42 912.34L3180.74 846.599C3179.3 837.325 3187.74 817.953 3195.98 818.159L3244.18 819.602C3284.14 820.838 3326.37 807.855 3328.22 783.537C3329.05 770.966 3255.3 773.645 3220.9 789.101L3183.21 806C3174.76 809.916 3160.76 826.196 3162.4 835.058L3175.59 902.654L3169 905.745L3149.43 849.278C3144.07 833.616 3129.45 858.346 3102.67 870.711C3090.31 876.481 3074.45 888.64 3071.57 899.769L3091.55 920.583L3050.14 926.354C3019.24 930.681 2998.65 952.114 2996.38 980.76C2995.76 989.416 2997.2 1009.2 3002.97 1013.94C3009.77 1019.5 3031.19 1011.05 3038.4 1005.7L3060.24 989.828C3054.06 1010.44 3053.23 1020.74 3055.7 1043.82C3037.78 1026.92 3005.44 1023.21 2990.82 1047.74L2955.39 1106.47C2951.68 1112.65 2973.93 1125.02 2981.96 1127.08C2961.77 1133.67 2938.91 1145.01 2921.81 1162.32C2887.83 1196.74 2868.88 1184.58 2863.93 1210.34C2860.43 1228.27 2853.43 1236.31 2842.3 1249.7C2806.46 1292.57 2769.59 1367.38 2812.44 1379.12C2823.56 1383.24 2821.29 1386.95 2810.17 1387.57C2783.39 1400.35 2767.32 1417.87 2755.38 1443.21L2718.71 1521.73C2697.5 1567.07 2654.03 1619.83 2698.94 1653.63C2656.09 1656.31 2606.45 1707.21 2601.51 1732.35C2596.56 1756.88 2599.86 1772.33 2579.05 1784.9C2529.41 1814.37 2490.48 1851.26 2455.05 1897.63L2418.39 1962.55L2385.84 1994.7C2367.51 2012.83 2401.49 2022.93 2415.5 2049.52C2389.14 2043.33 2378.01 2039.42 2355.97 2048.28C2330.84 2058.38 2332.28 2029.94 2317.66 2028.91C2270.49 2025.4 2217.14 2057.55 2225.79 2074.04C2227.64 2077.54 2234.03 2083.93 2237.74 2085.37L2264.93 2096.09L2257.51 2107.63L2192.63 2139.57L2096.22 2184.5C2063.06 2199.96 2048.64 2227.37 2055.64 2238.91C2058.12 2243.24 2067.59 2249.42 2072.54 2250.45L2114.35 2259.1C2116.82 2259.52 2124.03 2265.29 2126.3 2266.94C2147.93 2283.42 2073.15 2265.49 2061.82 2267.35L2004.77 2276.42C1996.73 2277.65 1978.4 2289.6 1975.1 2297.02C1972.43 2303.21 1982.73 2321.55 1984.79 2323.61L1918.66 2356.99C1907.75 2362.56 1884.88 2375.13 1878.7 2385.23L1837.3 2452.21C1803.11 2507.64 1851.1 2518.56 1838.12 2542.68C1820.2 2576.06 1820.82 2617.69 1850.07 2630.47C1806.2 2660.14 1818.97 2696.42 1844.92 2742.99C1851.1 2754.12 1845.75 2768.13 1838.54 2778.85C1821.44 2804.82 1842.24 2836.55 1869.43 2843.56C1879.73 2846.24 1894.36 2861.28 1902.19 2866.64L1924.02 2880.24C1908.98 2894.26 1906.31 2915.48 1914.96 2927.64L1909.19 2941.66L1870.05 2948.05C1859.75 2949.69 1839.77 2966.8 1839.15 2977.72L1834.62 3053.56C1834.62 3055.62 1842.86 3066.54 1844.51 3065.51L1855.43 3059.54L1942.15 3015.64L1922.78 3086.33C1919.49 3098.49 1889.62 3079.32 1879.94 3099.52C1864.9 3130.84 1867.37 3188.55 1904.66 3212.04L1993.64 3268.51L2010.74 3298.18C2079.95 3326.62 2165.44 3321.47 2224.55 3268.92L2338.67 3147.54C2358.44 3126.51 2376.16 3109 2407.67 3106.94C2448.87 3104.26 2474.21 3053.77 2476.47 2998.95L2483.06 3008.22C2486.36 3034.81 2495.01 3057.89 2517.46 3070.05C2529.82 3076.85 2535.38 3088.39 2537.44 3101.99L2557.43 3235.33L2605.01 3358.77L2642.5 3456.04C2661.65 3512.51 2688.23 3561.77 2734.78 3601.13C2737.66 3603.81 2746.93 3624.21 2743.43 3629.16L2706.15 3681.29C2702.85 3685.83 2704.29 3694.07 2707.38 3709.73C2707.38 3709.73 2707.59 3709.73 2707.79 3709.73C2710.88 3709.12 2712.12 3708.91 2707.79 3709.73C2707.79 3709.73 2707.59 3709.73 2707.38 3709.73C2705.32 3710.15 2702.85 3710.76 2700.17 3711.18C2676.69 3699.43 2632.61 3718.39 2633.85 3744.97L2635.49 3782.69C2635.49 3785.57 2625.19 3792.79 2624.99 3789.9L2623.75 3774.65C2622.93 3762.29 2616.75 3742.5 2601.71 3741.06C2592.24 3740.23 2575.96 3754.45 2571.84 3763.73C2563.4 3782.28 2548.57 3787.22 2528.59 3788.46L2516.02 3789.08C2499.54 3789.9 2538.89 3824.52 2537.44 3877.69C2536.21 3927.15 2594.91 3899.33 2614.28 3939.52L2608.51 3952.71L2589.56 3969.81C2580.91 3977.64 2562.58 3939.73 2530.44 3955.59C2520.97 3960.13 2512.31 3984.03 2519.11 3992.89C2551.86 4035.14 2601.92 4038.23 2646.62 4008.76C2657.53 4001.55 2657.33 3977.23 2659.39 3962.81L2664.33 3928.39C2668.25 3900.57 2693.79 3912.52 2703.47 3892.33C2712.33 3873.98 2672.57 3850.28 2680.4 3844.31L2696.88 3831.32C2704.09 3825.76 2720.57 3812.57 2720.15 3802.47L2716.86 3740.65L2725.92 3742.5L2753.73 3808.24C2758.67 3819.78 2745.08 3853.58 2754.14 3862.24C2768.97 3876.66 2802.96 3876.87 2822.32 3874.6L2898.74 3865.95C2909.04 3864.71 2925.93 3858.12 2931.29 3850.49C2950.45 3822.88 2911.1 3796.91 2933.35 3761.46C2954.15 3728.69 2991.85 3711.18 3030.99 3712L3103.7 3713.65C3113.79 3713.86 3131.3 3700.46 3135.63 3690.16L3175.38 3596.59L3172.09 3688.71C3172.09 3692.84 3191.86 3697.99 3193.71 3694.28L3201.13 3679.23L3269.93 3471.5C3272.4 3464.08 3263.96 3442.85 3257.36 3446.56C3249.33 3451.3 3238.83 3466.97 3235.53 3474.59L3191.86 3574.54L3184.65 3573.51L3201.75 3472.12L3215.75 3373.61L3231.2 3276.34L3242.74 3206.89C3244.18 3198.64 3249.12 3182.36 3256.54 3178.45L3335.64 3135.79C3393.93 3104.46 3453.26 3055 3414.74 3022.85L3410.62 3013.37L3459.44 2971.13C3475.91 2956.91 3483.33 2930.94 3482.09 2909.71C3479.83 2877.56 3460.47 2862.11 3442.75 2840.68L3393.52 2780.91C3385.28 2770.81 3368.6 2753.5 3358.09 2748.97L3292.59 2721.15C3282.08 2653.96 3278.79 2583.89 3285.58 2518.98L3302.06 2487.03L3322.04 2399.86C3332.14 2355.76 3300 2332.68 3330.69 2324.43C3366.95 2314.54 3380.95 2274.56 3400.94 2249.21C3418.44 2226.95 3435.54 2211.7 3445.63 2184.5C3462.73 2138.75 3490.75 2152.15 3534.41 2106.6C3546.77 2093.62 3565.31 2081.46 3581.58 2071.57L3652.65 2028.29C3730.92 1980.68 3711.77 1935.34 3761.62 1882.59L3787.57 1855.18C3820.53 1820.14 3757.5 1787.17 3757.08 1745.75C3757.08 1736.68 3770.89 1718.13 3776.86 1711.54C3823 1661.46 3793.75 1609.94 3819.7 1599.84C3854.93 1586.24 3883.35 1548.94 3886.44 1508.13C3888.71 1480.31 3938.35 1509.37 3961.63 1508.13L4064.83 1503.39C4080.07 1502.77 4104.38 1505.25 4116.32 1513.08L4191.92 1561.51C4230.03 1585.82 4206.13 1626.01 4221.99 1703.09C4223.02 1707.83 4221.99 1721.84 4217.87 1721.84H4198.31C4164.52 1721.63 4136.72 1738.74 4122.09 1769.24C4105.2 1804.69 4085.01 1836.01 4060.91 1867.34C4032.28 1904.64 4006.33 1944.82 3970.9 1975.12C3942.06 1999.85 3912.81 2019.84 3895.3 2054.26L3865.23 2113.81C3851.63 2140.81 3797.46 2113.4 3790.04 2150.7C3775.21 2227.16 3722.27 2224.69 3738.34 2310.01L3759.97 2423.56C3770.27 2477.97 3800.96 2519.8 3774.18 2609.04C3761 2652.93 3754.41 2693.32 3762.23 2738.46C3766.15 2761.33 3785.72 2763.6 3803.84 2772.05L3874.5 2804.82C3902.72 2817.8 3882.53 2852.01 3888.92 2879.83C3890.56 2887.25 3909.51 2894.46 3916.31 2891.17L3954.21 2872.82C3964.31 2868.08 3964.72 2906 3955.45 2909.1C3952.98 2917.34 3951.95 2918.57 3953.59 2920.02C3956.07 2922.08 3967.19 2926.41 3970.28 2925.17L4006.33 2911.77L4139.39 2877.15L4222.41 2846.45L4342.91 2807.7L4409.85 2790.18C4469.18 2774.73 4537.56 2798.63 4602.86 2750.62C4601.42 2746.29 4609.66 2756.39 4610.07 2759.27C4607.8 2770.81 4608.42 2796.16 4615.84 2802.55L4661.98 2841.29C4693.7 2867.88 4734.07 2833.05 4759.62 2861.08L4791.96 2896.73L4781.04 2902.29L4697 2881.89C4685.25 2879.01 4665.48 2891.99 4661.98 2901.88C4647.97 2939.8 4603.27 2901.26 4584.73 2938.57C4583.91 2940.21 4576.29 2940.63 4574.64 2940.21L4557.34 2935.89C4553.22 2934.86 4545.18 2948.87 4545.18 2953.61V3002.04C4501.1 3001.21 4457.64 3001.22 4417.68 2990.5L4324.99 2965.97C4308.51 2961.65 4282.14 2967.62 4264.22 2971.54L4184.5 2988.44C4148.66 2996.06 4115.91 3002.66 4085.22 3022.44C4049.79 3045.32 4005.5 3045.52 4011.48 3100.55L4017.66 3158.87C4020.75 3187.1 4028.57 3222.34 4047.94 3243.57C4053.5 3249.75 4071.21 3257.79 4082.13 3263.77C4093.46 3269.95 4113.03 3258.82 4118.79 3249.96C4120.65 3247.07 4133.01 3239.04 4133.42 3242.33C4133.63 3245.63 4134.66 3254.7 4134.04 3258.2L4117.76 3330.74L4135.69 3323.94L4151.13 3246.46C4152.58 3239.66 4137.13 3227.7 4130.54 3228.53C4105.82 3232.24 4101.9 3253.88 4092.43 3250.17C4041.96 3230.38 4042.79 3211.83 4032.49 3156.4C4027.75 3130.64 4021.98 3094.37 4031.25 3070.87C4035.37 3060.77 4062.35 3052.94 4071.62 3046.76C4106.44 3024.09 4145.98 3010.28 4187.18 3002.04L4271.84 2984.93C4292.85 2980.61 4312.63 2977.31 4332.81 2982.87L4413.56 3004.51L4544.15 3017.29L4558.78 3018.53C4576.49 3019.97 4538.8 3037.9 4526.85 3067.57C4516.14 3094.16 4498.22 3120.33 4480.71 3143.41C4473.71 3152.69 4482.36 3179.89 4483.59 3192.05L4492.66 3276.34C4494.51 3293.44 4512.43 3324.36 4520.67 3340.64C4502.75 3354.44 4490.6 3368.46 4481.95 3387.21L4474.94 3402.67C4474.94 3402.67 4473.71 3403.7 4472.68 3403.9L4495.34 3407.82L4500.49 3408.64C4499.04 3405.97 4497.6 3403.49 4496.78 3401.02C4492.04 3389.27 4509.55 3365.78 4519.64 3361.86C4526.23 3359.18 4535.71 3354.65 4536.53 3349.91C4540.45 3331.36 4511.61 3303.54 4508.52 3277.99L4497.6 3189.58C4496.37 3179.48 4489.77 3154.54 4496.16 3146.3C4510.17 3128.37 4529.74 3101.58 4537.98 3081.18C4556.51 3034.81 4586.38 3045.73 4568.46 3009.87C4553.63 2980.19 4558.99 2950.52 4560.63 2951.34L4574.23 2957.53C4597.09 2967.83 4598.12 2926.82 4622.84 2934.65C4672.28 2950.31 4667.75 2886.63 4709.77 2897.76L4782.27 2917.13C4787.42 2918.57 4799.58 2916.31 4803.9 2913.22C4808.23 2910.13 4808.85 2893.02 4805.14 2888.9L4781.04 2862.31C4731.19 2807.5 4705.44 2864.37 4656.42 2816.15C4648.18 2808.11 4623.46 2794.51 4624.28 2784.21L4627.78 2735.78C4627.78 2733.1 4625.31 2723 4622.84 2723.21C4596.68 2726.3 4580 2759.68 4541.48 2760.1L4622.02 2670.86L4693.91 2602.23L4766.21 2515.68L4874.56 2374.92C4911.84 2335.77 4934.5 2297.02 4949.12 2244.06C4954.07 2226.34 4961.69 2203.25 4951.39 2188.21L4913.69 2132.98C4898.04 2109.9 4867.55 2094.85 4846.54 2073.63L4799.58 2026.23C4796.69 2023.34 4795.25 2012.42 4797.52 2009.54L4831.92 1962.96C4859.93 1925.04 4844.48 1881.35 4805.55 1859.3C4766.62 1837.25 4805.55 1778.31 4787.63 1760.38C4776.3 1748.84 4739.63 1755.23 4738.4 1715.04C4737.57 1689.69 4773.21 1665.37 4761.26 1654.24L4744.17 1638.58L4757.35 1561.09C4758.17 1555.74 4756.73 1548.94 4759.82 1547.7L4770.74 1542.75L4789.9 1534.1C4793.19 1532.66 4794.22 1517.82 4792.98 1513.7L4765.18 1415.19L4728.1 1330.49L4684.84 1239.4C4675.57 1220.02 4673.51 1196.12 4685.05 1177.36L4758.38 1058.04C4769.91 1039.29 4777.54 1008.17 4761.68 991.683C4741.28 970.456 4724.6 951.084 4712.44 925.117C4685.67 867.413 4632.73 874.832 4619.34 851.957C4609.86 835.47 4602.65 808.267 4598.12 785.392C4590.71 748.09 4670.63 681.113 4605.95 661.947C4623.25 648.964 4638.08 641.132 4661.36 632.683C4693.08 620.936 4680.1 569.621 4711.83 553.546L4755.91 531.083C4773.42 522.221 4782.07 503.468 4783.3 476.677C4785.36 476.677 4792.78 477.295 4795.87 477.501C4808.23 498.522 4846.95 508.826 4865.08 486.569C4874.56 474.822 4870.64 449.68 4868.17 424.125L4927.08 449.68C4935.11 453.183 4950.15 452.153 4954.27 444.94L4977.14 404.135L4992.38 378.374C5006.8 384.145 5025.75 396.304 5039.55 407.638C5071.68 434.223 5121.33 424.125 5101.55 456.686C5097.84 462.869 5081.98 471.112 5074.16 468.639L5019.78 451.534C5011.74 449.061 4995.67 452.153 4992.58 458.541C4989.91 464.106 4996.29 481.211 5002.06 484.096L5078.27 520.985C5092.28 527.786 5102.79 531.495 5115.15 533.35V516.863C5107.73 516.039 5099.49 514.184 5095.17 511.917L5021.22 475.44L5076.01 481.829C5090.02 483.477 5108.35 474.41 5115.15 462.045V429.895C5113.29 424.537 5110.41 420.209 5106.7 418.973L5105.26 419.797ZM2806.46 922.026C2805.84 924.087 2797.4 913.989 2799.46 912.546L2812.23 903.478L2806.67 921.82L2806.46 922.026ZM2854.66 893.998L2865.58 845.568L2913.16 840.004C2896.48 865.765 2885.15 875.039 2854.66 893.998ZM3058.18 715.941C3054.47 733.664 3029.34 748.09 3007.09 751.8L3022.95 725.421C3025.84 720.681 3029.54 712.232 3030.99 708.11C3032.43 703.988 3015.74 705.843 3012.04 708.11L2967.34 737.374C2961.98 689.15 3008.12 702.752 3025.01 689.974C3029.13 686.883 3029.96 673.076 3029.96 667.717L3029.54 650.2C3028.72 624.646 3066.62 676.991 3058.59 715.735L3058.18 715.941ZM3091.55 652.879C3085.57 619.493 3102.67 607.334 3116.06 587.138L3150.87 548.806L3142.63 592.496L3091.55 652.879ZM3371.48 521.809L3359.33 574.773C3302.27 579.513 3285.58 624.027 3254.89 617.02C3264.57 590.435 3269.72 574.361 3268.9 547.57C3268.08 522.84 3289.7 532.732 3317.1 493.37C3322.04 486.157 3339.96 473.173 3348.41 475.646C3365.3 480.18 3374.78 508.208 3371.48 522.015V521.809ZM3512.17 292.849L3517.32 299.238C3515.67 307.275 3514.64 315.725 3511.96 315.106C3509.28 314.488 3502.69 313.251 3503.52 313.251L3512.17 292.849ZM3479.21 315.106C3479.21 315.106 3485.39 323.35 3483.95 325.617L3474.06 341.485C3474.06 341.485 3467.88 333.036 3469.32 330.975L3479.21 315.312V315.106ZM3463.76 455.656C3456.55 469.67 3410.82 479.974 3404.23 465.548C3397.23 450.916 3429.16 426.804 3446.66 425.155C3461.29 423.713 3469.94 404.959 3468.91 392.388C3469.94 391.358 3472.21 389.503 3473.85 387.854L3488.27 408.669L3463.97 455.45L3463.76 455.656ZM3499.6 393.831C3491.36 384.763 3483.12 374.871 3479.21 366.627C3475.71 359.414 3485.18 343.546 3490.75 335.715C3520.41 330.357 3538.53 329.738 3568.81 357.972L3499.6 393.831ZM3977.49 347.255C3944.12 317.991 3973.37 280.69 3918.37 269.355L3878.2 261.112C3902.1 254.517 3925.17 258.021 3949.68 271.622C3963.07 275.538 3980.99 272.653 3993.76 265.852C3982.84 290.582 3978.93 310.985 3977.49 347.462V347.255ZM3976.46 257.403C3971.31 263.173 3950.71 252.663 3949.27 246.274C3947.62 238.443 3949.68 219.895 3956.68 214.949L3998.71 186.303C4013.54 200.523 3997.88 233.085 3976.25 257.403H3976.46ZM4018.89 221.544L4020.54 179.709L4038.46 203.202L4018.89 221.544ZM4051.23 189.188C4043.82 184.449 4032.69 165.283 4028.99 156.009C4027.13 151.475 4045.46 136.225 4048.55 140.759L4065.65 165.901C4069.36 171.259 4056.59 192.692 4051.23 189.188ZM4214.99 47.6082C4221.58 30.091 4235.18 16.4894 4246.92 14.6347C4266.28 11.7495 4281.32 19.3746 4287.5 48.4326L4214.99 47.6082ZM1937.41 2852.01C1937.41 2852.01 1934.32 2862.31 1931.85 2869.94C1931.23 2871.79 1922.58 2862.31 1924.64 2860.87L1937.41 2851.8V2852.01ZM2445.78 2069.51C2461.44 2071.36 2489.45 2055.9 2508.19 2046.42C2515.4 2042.71 2517.05 2076.51 2508.19 2076.92L2432.6 2079.19L2422.92 2067.03L2445.78 2069.71V2069.51ZM3291.97 795.902L3243.97 808.885V797.551L3291.97 795.902ZM2252.15 2082.08C2247.83 2078.99 2242.68 2062.71 2245.77 2061.06L2306.54 2042.3C2310.65 2041.07 2325.28 2059.61 2324.25 2062.71L2251.95 2082.08H2252.15ZM2531.06 3984.03C2529.62 3979.91 2538.06 3963.01 2541.77 3964.87L2564.63 3976.82C2597.39 3994.13 2614.07 3972.29 2613.87 4006.08C2591.83 4024.84 2539.09 4009.18 2531.06 3983.83V3984.03ZM2635.08 4001.76L2619.22 3979.71C2616.34 3975.79 2633.64 3974.14 2637.97 3976.41C2643.73 3979.5 2641.06 3992.07 2635.29 4001.76H2635.08ZM2660.21 3851.93L2690.29 3887.17L2652.8 3904.69L2645.79 3944.26C2644.76 3950.44 2623.96 3935.4 2622.31 3928.39C2618.81 3914.79 2599.45 3900.36 2582.97 3900.98C2536.83 3902.63 2560.52 3858.32 2533.74 3802.88C2555.16 3807.42 2578.85 3785.37 2584.62 3769.09C2586.47 3764.14 2599.65 3752.39 2600.89 3756.72C2602.12 3761.05 2604.6 3772.59 2604.6 3777.12C2604.6 3794.64 2609.95 3806.8 2625.19 3810.1C2636.52 3812.57 2650.74 3796.29 2649.91 3784.75L2647.23 3745.59C2645.79 3723.95 2696.47 3714.27 2698.53 3732.82L2705.53 3795.88C2708 3818.96 2673.19 3813.4 2660.21 3851.93ZM3190.62 3614.73L3209.37 3569.18L3217.4 3571.66L3185.68 3668.72C3182.39 3649.76 3184.24 3629.57 3190.62 3614.52V3614.73ZM3993.76 1494.32C3933.2 1496.8 3917.34 1476.81 3893.65 1482.99C3861.31 1491.23 3879.03 1559.86 3806.73 1590.98C3774.8 1604.78 3810.02 1651.15 3761.82 1706.38C3754.61 1714.63 3738.55 1735.24 3739.16 1746.57C3741.64 1800.15 3806.93 1821.79 3766.15 1857.03C3738.34 1881.14 3717.74 1908.35 3706.21 1943.59C3696.94 1972.65 3677.57 1995.52 3652.24 2010.98L3560.78 2066.62C3516.49 2093.62 3509.49 2118.14 3486.63 2126.18C3424.83 2147.61 3433.89 2195.42 3404.64 2221.8C3391.67 2233.55 3381.78 2243.85 3375.81 2257.46C3350.68 2313.92 3310.71 2310.83 3300.41 2328.35C3291.35 2343.8 3314.01 2365.24 3307.62 2391.2L3283.73 2486.21C3279.4 2503.73 3265.6 2524.13 3265.81 2543.29L3267.46 2641.19C3267.87 2670.04 3270.96 2705.28 3284.55 2731.04C3296.09 2753.09 3340.99 2751.23 3355.41 2766.9L3404.64 2820.07C3422.36 2839.03 3429.57 2855.93 3449.75 2873.44C3466.23 2887.87 3477.56 2930.53 3458.82 2948.05L3399.91 3003.28C3396.4 3006.57 3390.43 3016.26 3389.81 3020.59C3389.19 3024.91 3398.05 3031.51 3402.38 3034.39C3432.66 3055.62 3371.07 3099.52 3319.37 3128.58L3235.53 3175.77C3229.14 3179.27 3226.88 3200.71 3225.85 3207.51L3215.75 3272.01L3200.72 3369.08L3186.09 3471.71C3180.33 3511.48 3176 3550.84 3160.34 3588.56L3119.56 3686.86C3117.09 3692.84 3100.2 3700.05 3094.02 3699.84L3020.07 3698.4C2979.08 3697.58 2940.76 3721.48 2918.93 3754.87C2892.36 3795.67 2929.02 3825.14 2918.93 3841.22C2915.63 3846.37 2902.24 3851.52 2896.07 3852.14L2813.88 3861.62C2801.31 3863.06 2765.26 3864.5 2765.06 3852.76L2764.23 3798.76L2717.89 3690.77L2746.11 3651.82C2758.47 3634.72 2760.53 3606.49 2743.02 3591.65C2699.35 3554.35 2674.84 3507.77 2654.86 3454.6L2613.04 3343.52L2575.96 3253.05L2559.07 3180.3L2548.77 3077.67C2576.99 3081.18 2564.02 3123.84 2586.88 3129.81C2620.04 3138.47 2633.23 3068.81 2628.9 3015.23C2627.67 3001.22 2623.34 2979.16 2628.7 2969.68C2653.21 2925.79 2636.32 2919.81 2662.48 2910.95C2704.71 2896.73 2724.69 2855.1 2720.36 2813.27C2731.69 2781.73 2724.89 2755.36 2714.8 2725.47L2692.55 2659.32L2737.66 2652.52C2749.4 2634.38 2764.03 2602.03 2760.32 2577.5C2751.05 2515.06 2679.16 2512.38 2684.93 2469.72L2695.64 2390.17C2702.85 2336.39 2673.6 2312.07 2679.99 2254.57L2686.99 2191.71C2688.23 2180.17 2682.25 2160.8 2677.93 2147.2C2673.19 2132.57 2679.16 2117.94 2683.69 2101.86L2696.26 2056.32L2745.9 1978.83C2758.88 1958.63 2788.33 1941.94 2812.02 1946.68L2880.41 1960.07C2923.67 1968.52 2936.44 1888.98 2920.99 1844.05C2918.31 1836.42 2900.39 1827.77 2894.21 1824.27L2879.59 1816.23C2875.47 1813.96 2879.38 1800.15 2882.26 1795.21L2955.18 1664.34C2960.54 1654.66 2966.31 1631.78 2967.75 1620.65L2979.7 1523.18L2981.34 1420.54C3011.01 1417.45 3041.49 1411.06 3067.45 1393.55C3098.96 1372.32 3075.27 1335.02 3090.1 1313.38L3133.77 1249.91L3187.74 1175.72C3215.14 1138 3167.76 1080.51 3171.47 1072.06C3179.09 1054.74 3201.75 1054.74 3213.9 1023.63L3241.3 953.763C3248.51 935.421 3276.93 916.874 3295.68 906.363C3308.24 899.357 3337.7 919.965 3350.47 926.148L3364.27 932.948C3371.89 936.864 3402.58 881.015 3402.17 862.261L3400.94 793.635C3400.94 787.04 3407.32 773.027 3412.06 767.256C3474.06 780.446 3523.7 795.49 3580.76 818.777C3597.03 826.815 3613.92 823.723 3626.7 809.297C3651.21 782.3 3619.07 766.432 3632.88 750.357C3647.91 732.634 3664.39 688.12 3653.68 663.183L3640.08 631.859L3692.82 635.156C3701.06 635.568 3708.47 660.092 3714.45 666.275L3745.96 697.806L3822.59 768.287L3846.69 789.307C3889.12 797.345 3929.91 815.686 3961.42 846.805C3970.9 868.444 3982.84 888.022 3998.71 904.509C4018.07 924.705 4014.36 942.84 4012.09 968.807L4006.74 1030.22C4004.88 1051.24 4004.06 1068.14 4023.63 1077.83C4027.96 1080.09 4040.52 1088.75 4038.25 1092.46L4024.45 1114.1C4014.77 1129.35 4020.95 1160.47 4031.87 1178.19C4064 1229.92 4058.23 1227.24 4051.03 1271.96C4042.58 1323.48 3997.06 1339.76 4049.58 1416.84C4062.97 1436.41 4069.56 1466.09 4077.39 1490.61L3994.38 1494.12L3993.76 1494.32ZM4610.69 643.811L4580.82 671.427L4618.31 688.944L4591.12 747.472C4582.06 767.256 4579.38 786.422 4586.59 809.504C4591.33 824.754 4596.48 860.406 4609.66 867.413L4676.4 903.684C4693.49 912.958 4695.14 947.993 4747.05 1000.75C4758.59 1012.5 4752.82 1037.43 4743.55 1052.48L4668.78 1176.13C4654.97 1198.8 4659.3 1224.76 4670.42 1247.85L4707.91 1325.54L4748.49 1419.72L4779.18 1522.14L4739.84 1541.52C4739.43 1570.57 4731.81 1617.15 4725.22 1641.26C4724.39 1644.56 4733.25 1653.21 4737.37 1656.1C4756.53 1670.32 4710.8 1688.25 4724.19 1730.08C4730.98 1751.1 4743.96 1761.41 4761.26 1769.86L4776.09 1777.07C4782.27 1779.96 4750.35 1843.43 4794.22 1871.25C4807.4 1879.7 4823.06 1894.75 4826.56 1907.11C4831.3 1923.39 4826.56 1946.89 4815.64 1960.49L4781.45 2003.56L4773 2012.42C4770.53 2015.1 4775.68 2024.37 4778.36 2027.26L4828 2080.63C4848.19 2102.48 4883 2117.94 4899.07 2141.84L4936.76 2197.9C4943.15 2207.38 4936.15 2230.05 4932.44 2242.82C4918.84 2291.25 4894.95 2324.43 4865.08 2362.97L4756.53 2503.31L4678.05 2597.7L4618.52 2652.52L4533.03 2745.67C4516.96 2763.19 4508.73 2776.79 4481.33 2772.25C4464.03 2769.37 4438.28 2769.58 4420.56 2774.11L4342.7 2793.89L4213.14 2835.73L4130.12 2866.64L4056.79 2882.92L3974.6 2908.06C3975.43 2896.94 3976.05 2882.72 3973.37 2875.09C3970.69 2867.26 3951.53 2853.45 3944.94 2858.19L3921.05 2875.3C3918.16 2877.36 3903.95 2879.42 3902.51 2876.12C3893.86 2856.54 3918.78 2815.74 3882.94 2796.57L3835.77 2771.43C3822.18 2764.01 3801.37 2758.65 3781.6 2754.33C3761.62 2708.78 3772.74 2663.44 3785.72 2619.55C3814.76 2521.45 3781.8 2478.38 3770.68 2417.38L3751.73 2313.72C3736.07 2228.19 3788.6 2231.08 3799.11 2167.19C3805.9 2125.97 3861.52 2161.83 3878.2 2119.17C3902.1 2058.38 3928.67 2030.14 3975.84 1990.37C4012.71 1959.25 4039.9 1918.45 4069.36 1879.91C4094.08 1847.35 4116.32 1815.2 4133.42 1778.51C4161.23 1717.93 4217.05 1748.01 4228.38 1735.85C4245.06 1718.13 4223.44 1682.48 4228.38 1611.38C4229.41 1596.75 4222.82 1570.57 4211.08 1562.33L4153.61 1521.73L4094.08 1485.67C4078.01 1475.98 4078.22 1428.38 4065.86 1413.33C4044.02 1386.54 4027.34 1357.28 4046.7 1325.33C4056.79 1308.85 4062.15 1289.06 4066.06 1268.45C4071.42 1239.19 4074.1 1216.93 4055.97 1190.97C4046.7 1177.78 4032.69 1149.54 4032.9 1134.29C4032.9 1125.64 4047.11 1110.59 4052.88 1101.94C4058.44 1093.69 4044.02 1073.91 4033.72 1067.73C4022.39 1060.93 4019.72 1047.94 4020.75 1035.58L4026.1 974.577C4028.57 946.138 4030.63 927.384 4013.33 902.036L3971.72 840.622C3951.33 810.74 3908.69 791.78 3873.88 782.094C3856.16 777.148 3844.83 769.729 3832.48 758.395L3758.94 691.005L3731.95 662.153L3699.2 621.76L3718.36 629.179L3734.22 633.919C3738.75 635.362 3741.84 620.73 3741.64 614.96L3740.19 578.689C3739.99 571.064 3759.56 562.408 3767.38 562.614C3776.45 562.614 3796.22 569.621 3801.37 577.658L3872.85 692.035C3875.94 696.981 3881.71 716.147 3887.47 717.796L3974.4 741.702C3983.26 744.175 4006.74 736.756 4015.39 733.458C4050 720.269 4052.67 692.241 4061.12 696.775L4077.19 705.225L4122.91 730.367L4174.82 760.455C4187.39 767.668 4207.37 729.955 4208.19 715.323C4210.66 665.244 4276.37 685.028 4277.61 633.507C4279.05 577.658 4290.17 473.173 4306.04 453.595L4350.73 398.364C4380.81 361.475 4407.79 403.104 4447.55 373.84L4488.74 343.546C4494.51 339.218 4511.2 343.958 4515.32 348.698L4550.33 391.152C4582.88 430.514 4623.67 429.483 4647.97 453.183C4658.48 463.487 4668.98 496.255 4667.33 511.299C4664.04 540.975 4614.4 560.141 4623.87 613.311C4625.93 625.47 4619.55 635.568 4610.89 643.605L4610.69 643.811Z" fill="#DEE0EE"/>
<path opacity="0.91" d="M5113.7 655.764V631.034C5109.79 638.247 5107.52 645.666 5108.76 654.116C5108.97 655.558 5111.03 655.764 5113.7 655.764Z" fill="#DEE0EE"/>
<path opacity="0.91" d="M2619.22 3979.71L2635.08 4001.76C2640.85 3992.07 2643.73 3979.5 2637.76 3976.41C2633.43 3974.14 2616.34 3975.79 2619.01 3979.71H2619.22Z" fill="#DEE0EE"/>
<path opacity="0.91" d="M1225.52 4235.66L1234.59 4216.91L1210.28 4172.81C1199.78 4153.64 1197.3 4135.51 1190.92 4111.39C1185.36 4090.58 1164.14 4062.55 1149.72 4042.15C1132.62 4018.04 1093.49 4010.62 1075.36 3989.8C1046.11 3955.8 1038.28 3903.45 1032.52 3860.38C1027.78 3824.11 1011.92 3801.24 988.228 3775.68C966.6 3752.19 946.001 3733.85 917.163 3718.18C877.408 3696.75 869.787 3725.4 832.709 3725.81C855.78 3687.89 897.389 3697.99 910.572 3676.76C913.868 3671.4 905.628 3658.21 900.478 3654.09C874.112 3633.28 900.478 3641.52 933.848 3585.05C968.042 3526.73 969.072 3488.61 998.322 3444.71C1012.53 3423.48 1010.68 3388.65 986.168 3375.26C975.457 3369.49 950.121 3371.34 936.32 3370.73L814.789 3366.6C797.898 3365.99 768.442 3383.71 750.521 3389.48L776.475 3345.58L748.873 3333.84L848.57 3242.33C855.986 3235.53 864.431 3213.69 864.637 3203.8L865.255 3170.62C856.398 3165.46 833.327 3163.4 822.204 3165.67L745.783 3181.13C682.752 3193.9 640.937 3166.08 624.046 3174.53C618.69 3177.21 611.893 3189.37 610.657 3195.35L601.8 3238.01C600.152 3246.04 558.749 3247.49 580.583 3320.03L544.742 3330.54C534.648 3333.63 523.937 3344.96 523.319 3353.62L518.582 3416.89C517.552 3431.93 526.409 3446.15 540.21 3457.28C522.495 3467.17 501.485 3454.81 497.983 3435.64L488.92 3386.18C487.272 3376.91 461.524 3363.72 458.434 3372.37L448.547 3398.75L426.506 3397.31C417.855 3396.69 408.379 3420.8 411.469 3429.05C415.795 3440.79 452.254 3477.48 474.913 3490.25C502.515 3505.71 495.099 3520.14 520.023 3525.7C514.05 3570.01 478.208 3554.76 467.909 3579.9L459.464 3600.51C457.61 3604.84 450.194 3615.97 453.49 3619.06L467.703 3632.45C482.946 3646.88 468.115 3636.57 452.666 3660.48C449.576 3665.22 464.201 3677.59 469.763 3676.76L510.96 3670.17C520.229 3668.72 536.708 3657.6 546.184 3650.79L533.412 3695.93C505.192 3700.25 497.159 3727.05 454.726 3744.56C439.689 3750.75 424.446 3777.54 437.835 3789.9L465.025 3814.84C503.339 3812.57 499.219 3765.58 533.824 3729.31C540.416 3790.73 508.694 3841.63 521.053 3870.27C523.525 3876.25 548.243 3875.84 550.509 3869.86L567.4 3827.2L584.085 3844.72C588.205 3849.05 607.155 3844.72 609.215 3839.16C617.661 3814.63 609.627 3777.12 582.231 3768.26L584.909 3750.13L620.132 3780.63L639.289 3808.04C661.947 3840.39 612.305 3870.69 593.354 3944.05C589.029 3960.54 612.305 3994.13 623.016 4006.91C625.282 4008.97 635.993 3998.87 636.405 3995.57L638.465 3971.46L671.629 3995.57C676.366 3999.08 693.257 4002.38 694.905 3997.64L702.321 3976.61C707.882 3980.32 731.365 3988.36 740.222 3983.42L803.871 3948.17C796.044 3977.85 766.588 4005.05 775.857 4035.55C782.861 4059.05 805.725 4095.94 819.732 4116.96C825.088 4125.2 849.806 4114.28 860.311 4109.33L842.597 4154.88L833.739 4236.9L832.709 4251.74C832.503 4255.86 821.792 4260.19 817.466 4260.6L732.6 4269.05C726.421 4269.67 711.178 4263.48 707.882 4259.16C699.025 4247.41 670.805 4236.9 658.034 4253.59C647.528 4267.4 658.24 4293.78 671.011 4304.5C685.224 4316.24 670.393 4325.1 653.914 4341.38H676.366L687.284 4330.46C693.669 4324.07 690.167 4305.94 685.224 4298.11L664.831 4266.58C690.579 4244.32 699.849 4281.41 711.796 4282.65L808.403 4275.85C820.35 4275.03 840.331 4265.96 850.218 4260.81C849.394 4223.3 847.334 4186.82 859.281 4154.05L875.348 4110.16C876.584 4107.07 873.082 4096.14 870.405 4094.29C867.521 4092.43 858.251 4091.2 855.162 4092.64L829.414 4105.21L795.838 4048.74C788.216 4035.97 788.628 4010.62 796.662 3996.6L820.144 3955.18C822.822 3950.44 820.762 3934.16 815.818 3932.92C812.111 3931.89 799.546 3931.28 796.25 3933.34L741.458 3967.13C721.683 3979.29 703.968 3949 684.194 3956.21V3983.83L630.638 3948.79L618.69 3977.85L606.331 3942.4L649.176 3861.62C663.801 3834 662.771 3816.07 646.292 3790.73C629.608 3764.55 645.675 3730.76 633.521 3707.67C632.491 3705.82 625.9 3714.68 625.488 3716.74L616.219 3758.99L595.62 3739C589.852 3733.43 584.703 3688.92 577.493 3709.12L573.168 3721.48L562.456 3773.83L541.24 3852.14C538.562 3861.83 534.648 3858.53 535.472 3849.67L550.509 3717.98C555.247 3676.76 569.254 3632.04 589.852 3598.45C592.736 3593.71 593.354 3577.84 588.617 3577.63C585.527 3577.63 575.022 3578.46 572.962 3580.52L543.712 3610.81C538.974 3615.76 520.229 3609.17 515.698 3604.01L495.099 3580.11L526.203 3558.47L544.742 3506.54L555.659 3461.81C559.985 3443.89 530.529 3444.71 534.854 3403.9L540.828 3348.26L590.058 3334.66C594.178 3333.42 603.242 3329.1 602.006 3326L597.062 3314.26C591.706 3301.89 587.381 3275.1 593.354 3263.77C595.414 3259.85 612.511 3253.26 613.541 3248.72L624.252 3197.82C629.608 3172.47 677.808 3204 709.736 3198.64L846.098 3175.77C856.398 3205.86 842.185 3228.53 821.38 3246.87L742.694 3316.32C737.75 3320.85 727.039 3334.87 726.627 3341.67C726.421 3347.23 744.548 3353 752.375 3355.89L728.687 3389.48C726.627 3392.36 726.009 3404.11 729.511 3405.14C757.319 3414.62 791.718 3380.62 813.347 3381.03L889.561 3382.68L956.301 3383.91C965.57 3383.91 983.285 3387.83 988.228 3394.42C993.172 3400.81 994.202 3420.39 989.876 3427.81L968.454 3464.08L938.792 3543.01L907.688 3597.42C902.95 3605.66 887.295 3617.41 876.79 3621.53L832.297 3638.64C829.619 3639.67 823.234 3653.68 826.118 3653.27L841.155 3652.03C879.674 3648.73 899.449 3667.28 888.943 3672.64L831.061 3702.52L791.306 3720.45C813.553 3743.33 848.364 3743.12 876.584 3728.9C905.216 3714.47 949.503 3755.49 980.607 3789.49C998.734 3809.27 1014.18 3827.2 1017.07 3856.05C1021.8 3904.48 1037.05 3959.51 1059.09 3995.78C1072.89 4018.66 1118.41 4014.95 1160.84 4082.34C1185.15 4121.08 1173.2 4149.93 1207.81 4197.54L1169.08 4197.12C1179.59 4224.95 1213.58 4235.04 1234.79 4275.85C1249.83 4304.91 1227.17 4327.16 1215.43 4341.18H1234.59L1251.68 4316.86C1259.51 4289.04 1244.47 4255.86 1225.73 4235.04L1225.52 4235.66ZM476.767 3798.97L448.752 3774.03L460.494 3757.96L504.781 3738.59L476.767 3799.18V3798.97ZM591.706 3788.05L599.946 3830.71L583.055 3834L574.816 3791.34L591.706 3788.05ZM497.571 3612.46L534.03 3643.38C523.113 3649.97 501.279 3656.36 481.71 3659.24L492.627 3630.6L465.643 3608.34C479.032 3605.25 491.185 3606.69 497.571 3612.26V3612.46ZM511.578 3503.24C502.927 3466.35 481.298 3489.84 460.494 3461.4C453.902 3452.33 445.663 3444.09 439.071 3438.94L426.506 3429.05C423.004 3426.37 431.656 3413.8 435.981 3414.42L456.992 3417.3C461.524 3417.92 464.613 3404.11 466.673 3399.99L475.325 3385.15L481.71 3426.78C486.242 3456.25 500.249 3474.8 535.472 3477.27L511.784 3503.44L511.578 3503.24Z" fill="#DEE0EE"/>
<path opacity="0.91" d="M1267.96 4338.29L1265.48 4341.8H1348.08C1322.34 4334.58 1294.12 4334.17 1268.16 4338.29H1267.96Z" fill="#DEE0EE"/>
<path opacity="0.91" d="M499.219 4317.68L487.89 4217.32L468.939 4146.63C496.953 4135.09 511.166 4120.46 524.555 4096.76C555.659 4088.11 573.786 4064.2 569.048 4029.17C566.576 4011.44 551.745 3995.16 543.094 3980.53L516.316 3936.02L493.657 3889.44C445.045 3853.38 399.934 3901.6 388.811 3878.11C382.219 3864.3 352.145 3845.96 337.932 3850.08C332.165 3851.73 319.394 3866.36 317.54 3869.24L255.126 3883.88C227.524 3890.26 210.427 3908.4 206.308 3937.87C204.454 3950.85 190.447 3965.69 180.354 3974.35L164.493 3987.74C160.991 3990.63 167.788 4007.11 172.526 4008.15L224.022 4018.86L190.859 4043.59L176.234 4071.62L119.176 4066.67L48.111 4060.28C30.6022 4058.64 22.5688 4083.98 23.3927 4096.97L27.1004 4151.99L58.2042 4164.15L29.3663 4180.02C23.8047 4195.06 17.8311 4206.81 6.70789 4217.53C0.734316 4223.3 -3.59138 4246.17 4.23607 4250.09L56.5564 4276.67C75.713 4286.36 95.0756 4289.66 121.03 4291.72C91.5739 4301.2 88.2781 4320.36 81.8926 4341.18H96.5175C102.697 4320.98 106.611 4306.76 130.711 4304.91C141.01 4304.08 158.725 4288.83 153.369 4280.59C145.954 4269.25 127.003 4269.05 114.232 4271.73C94.6637 4275.85 81.0686 4268.22 64.7958 4260.19L10.8276 4233.19L34.7219 4205.99C43.3733 4171.16 80.6566 4183.11 80.4507 4163.74C80.4507 4139.01 41.9314 4145.6 41.3134 4134.06L38.6356 4083.78C38.2237 4074.71 63.1479 4070.38 72.0053 4071.41L156.871 4081.92L199.922 4083.98L203.836 4048.95L238.235 4026.28C241.737 4035.76 247.711 4051.22 253.272 4057.19L284.17 4091.61C292.204 4100.47 317.746 4109.33 330.517 4111.81C371.92 4120.05 365.74 4027.31 391.489 4071.21L413.323 4108.71L421.356 4122.52C423.622 4126.23 433.098 4123.76 438.659 4123.35L462.348 4121.08C457.816 4131.38 453.284 4145.4 455.55 4153.64L474.707 4223.3L485.006 4313.97C486.036 4322.22 486.242 4331.9 485.418 4341.38H500.043C500.455 4333.14 500.455 4324.9 499.425 4317.07L499.219 4317.68ZM336.285 3866.36C341.846 3858.94 366.976 3869.04 375.628 3879.55L329.899 3919.53C327.015 3902.22 328.251 3877.28 336.491 3866.15L336.285 3866.36ZM248.947 4022.98C245.239 4013.09 240.089 3999.9 235.146 3999.49L178.5 3994.54L198.48 3977.23C230.202 3949.62 218.667 3911.7 239.059 3904.69L305.181 3882.02L306.623 3923.03C306.623 3925.3 309.506 3934.99 310.124 3936.84L331.959 3924.68C325.779 3939.93 315.068 3962.39 307.035 3971.87C300.237 3980.12 265.632 3981.77 267.691 3988.57L274.077 4010.62L248.947 4022.98ZM423.416 4094.91L394.784 4051.01C391.283 4045.65 371.92 4043.18 367.388 4047.3C344.73 4067.5 353.175 4095.94 334.637 4096.76C321.248 4097.38 293.234 4083.16 284.376 4072.86L255.95 4039.88C281.286 4026.49 290.35 4014.33 304.975 3995.57C315.892 3981.56 328.457 3968.58 336.697 3950.85C343.906 3935.4 354.823 3928.18 370.066 3919.53L419.709 3891.3C433.51 3883.46 473.677 3883.67 481.298 3897.48L520.435 3968.99L509.518 3999.08C517.552 3999.08 537.532 3999.08 543.712 4003.61C554.835 4012.06 565.958 4057.4 529.911 4073.89C497.571 4088.93 500.043 4118.81 484.594 4113.04C441.131 4097.17 442.573 4123.96 423.416 4094.49V4094.91Z" fill="#DEE0EE"/>
<path opacity="0.91" d="M3379.1 3555.38C3386.31 3557.23 3404.64 3548.78 3409.18 3539.3C3437.81 3479.13 3472.82 3478.3 3466.64 3419.36C3461.91 3374.02 3509.08 3367.02 3494.04 3331.77C3429.77 3320.23 3411.44 3362.07 3374.36 3414.21L3377.87 3516.01L3379.1 3555.17V3555.38ZM3419.68 3375.67C3433.07 3357.12 3448.11 3350.32 3475.71 3343.32L3475.09 3360.63C3431.42 3390.1 3473.24 3439.97 3433.07 3479.54L3397.23 3514.78C3377.66 3441.62 3386.1 3422.25 3419.68 3375.67Z" fill="#DEE0EE"/>
<path opacity="0.91" d="M3821.56 3262.32L3833.5 3274.07L3844.83 3285.2C3851.43 3291.59 3826.71 3316.94 3840.51 3337.96C3842.77 3341.46 3861.31 3335.9 3863.17 3332.39L3887.06 3286.44C3891.18 3278.4 3915.49 3277.78 3924.76 3274.07C3959.77 3260.06 4003.65 3223.17 3998.91 3215.96C3971.1 3172.47 3935.88 3174.12 3886.65 3190.81L3837.21 3207.71C3834.12 3208.74 3823.41 3211.83 3824.44 3214.72L3828.97 3228.53C3834.53 3245.84 3815.79 3256.55 3821.35 3262.12L3821.56 3262.32ZM3844.42 3223.99L3886.03 3207.51C3925.58 3191.84 3966.78 3188.55 3983.05 3218.63L3939.18 3250.99C3931.76 3256.55 3912.6 3260.68 3900.24 3263.15C3881.91 3268.09 3868.93 3284.79 3861.93 3302.51C3861.93 3286.02 3855.13 3269.74 3842.98 3259.44L3844.63 3223.99H3844.42Z" fill="#DEE0EE"/>
<path opacity="0.91" d="M348.232 3501.38C366.564 3502.62 361.621 3469.85 371.714 3411.12L378.511 3371.96C420.532 3352.8 457.404 3325.18 471.411 3280.05L491.185 3216.37C493.451 3208.74 476.149 3187.52 470.381 3192.05L414.147 3235.53L377.07 3259.85C364.916 3267.68 369.86 3302.31 376.658 3316.11C385.309 3333.42 362.239 3338.16 374.186 3368.46L337.726 3371.14C332.577 3371.55 320.424 3380 321.659 3385.15L327.221 3405.14C336.078 3437.08 311.566 3499.12 348.232 3501.59V3501.38ZM413.117 3272.84C417.031 3256.35 423.416 3242.75 432.068 3236.56L472.853 3207.51C472.235 3221.31 470.175 3239.24 466.673 3248.72L446.487 3301.69L389.017 3354.03L399.11 3324.36C390.459 3306.43 385.103 3286.64 383.249 3267.48L413.117 3272.63V3272.84ZM362.651 3381.44L351.939 3426.37L343.494 3389.27L362.651 3381.44ZM347.202 3445.12L348.438 3473.77C348.438 3476.65 345.76 3481.8 344.112 3484.69L341.434 3448.63L347.202 3445.12Z" fill="#DEE0EE"/>
<path opacity="0.91" d="M348.438 3473.77L347.202 3445.12L341.434 3448.63L344.112 3484.69C345.76 3482.01 348.644 3476.65 348.438 3473.77Z" fill="#DEE0EE"/>
<path opacity="0.91" d="M3854.1 206.912C3890.36 208.56 3920.02 204.233 3945.56 189.807C3983.87 168.168 4017.66 112.937 3997.88 96.8624C3975.63 78.727 3955.86 124.478 3894.68 134.576C3875.11 137.873 3854.52 147.971 3840.51 163.016C3832.68 171.465 3842.16 206.293 3854.1 206.912ZM3964.92 119.738L3990.67 108.609C3970.28 172.908 3930.11 188.158 3860.9 195.371C3834.53 139.522 3919.61 161.779 3964.72 119.738H3964.92Z" fill="#DEE0EE"/>
<path opacity="0.91" d="M3557.9 2859.84L3613.51 2887.46L3636.17 2842.94C3640.91 2833.67 3638.44 2808.94 3628.55 2803.99L3590.44 2784.21C3580.76 2779.06 3583.44 2801.52 3552.75 2826.25C3548.22 2829.96 3540.18 2840.88 3543.07 2845.83C3545.33 2849.74 3553.78 2857.99 3557.9 2860.05V2859.84ZM3571.08 2836.97L3589.41 2833.05L3590.03 2802.34L3605.69 2806.67C3614.54 2809.14 3629.58 2828.93 3623.61 2837.58C3620.93 2841.5 3605.07 2842.53 3599.92 2842.32L3605.48 2869.11L3561.4 2841.5L3570.87 2836.97H3571.08Z" fill="#DEE0EE"/>
<path opacity="0.91" d="M3894.89 3159.49L3902.51 3176.39C3903.95 3179.68 3916.11 3173.5 3920.64 3170.82L3964.31 3144.86C3972.34 3140.12 3967.81 3116.21 3960.19 3110.03L3927.23 3083.65C3908.9 3068.81 3903.13 3105.7 3856.58 3110.85C3851.22 3111.47 3837.83 3118.07 3840.92 3121.57C3857.4 3140.32 3880.68 3127.55 3894.89 3159.49ZM3917.13 3097.04L3958.13 3129.19L3910.96 3159.49C3902.1 3144.03 3888.71 3127.13 3879.65 3123.22L3917.13 3097.04Z" fill="#DEE0EE"/>
<path opacity="0.91" d="M850.836 3148.57L848.364 3124.25L890.591 3126.31C895.535 3126.51 908.306 3111.88 904.392 3109.2L887.295 3097.04C854.75 3073.96 861.341 3049.85 831.267 3057.06C811.493 3061.8 822.822 3081.18 809.845 3123.22C805.931 3135.99 833.533 3152.48 850.836 3148.57ZM847.334 3074.58L864.843 3107.35C838.683 3104.26 830.237 3099.72 827.766 3077.26C827.354 3073.14 845.274 3070.87 847.334 3074.79V3074.58Z" fill="#DEE0EE"/>
<path opacity="0.91" d="M681.31 4113.45C703.145 4096.35 705.823 4058.22 689.756 4044.21C682.958 4038.23 661.742 4053.28 657.828 4062.14L629.814 4123.96C654.532 4131.38 664.008 4127.26 681.31 4113.45ZM679.044 4058.22C692.434 4089.34 676.367 4104.59 650.001 4108.92L679.044 4058.22Z" fill="#DEE0EE"/>
<path opacity="0.91" d="M3573.76 320.671C3581.79 336.951 3611.86 339.837 3621.13 322.732C3625.25 315.106 3618.66 292.643 3612.69 288.315L3572.93 259.876C3569.84 257.815 3558.1 261.318 3555.63 263.997C3553.98 265.852 3551.92 276.156 3552.95 278.423L3573.76 320.671ZM3612.48 311.397C3605.27 313.252 3591.06 316.343 3586.12 316.549L3571.29 274.92L3612.48 311.603V311.397Z" fill="#DEE0EE"/>
<path opacity="0.91" d="M3023.57 3946.53C3029.54 3943.23 3037.17 3922.41 3032.63 3917.47L3012.45 3896.04C3005.86 3889.03 2982.99 3877.08 2974.55 3881.61C2962.8 3888 2958.27 3919.73 2965.69 3930.45C2976.81 3946.53 3004.21 3956.62 3023.57 3946.32V3946.53ZM2980.52 3893.56L3017.18 3919.94C3019.45 3921.59 3016.77 3938.28 3013.89 3938.08C3011.01 3937.87 3001.94 3937.05 2999.47 3935.81L2979.08 3924.48C2974.34 3921.8 2976.61 3907.78 2980.52 3893.56Z" fill="#DEE0EE"/>
<path opacity="0.91" d="M3703.94 327.678C3716.09 316.137 3708.47 273.477 3689.11 266.883C3682.52 264.616 3668.72 271.829 3663.15 277.805C3651.62 290.376 3644.2 316.343 3655.12 328.296C3662.74 336.745 3693.64 337.57 3704.15 327.678H3703.94ZM3681.49 282.957C3688.49 279.248 3697.76 310.985 3690.96 316.549C3686.43 320.465 3669.54 317.579 3661.71 314.694C3665.21 303.154 3672.63 287.491 3681.49 282.957Z" fill="#DEE0EE"/>
</svg>
